<?xml version="1.0" encoding="UTF-8" standalone="no"?>
<!-- Created with Inkscape (http://www.inkscape.org/) -->

<svg
   xmlns:dc="http://purl.org/dc/elements/1.1/"
   xmlns:cc="http://creativecommons.org/ns#"
   xmlns:rdf="http://www.w3.org/1999/02/22-rdf-syntax-ns#"
   xmlns:svg="http://www.w3.org/2000/svg"
   xmlns="http://www.w3.org/2000/svg"
   xmlns:xlink="http://www.w3.org/1999/xlink"
   xmlns:sodipodi="http://sodipodi.sourceforge.net/DTD/sodipodi-0.dtd"
   xmlns:inkscape="http://www.inkscape.org/namespaces/inkscape"
   width="400"
   height="400"
   id="svg2"
   version="1.1"
   inkscape:version="0.48.2 r9819"
   sodipodi:docname="Judge_Hammer.svg">
  <defs
     id="defs4">
    <linearGradient
       id="linearGradient4803">
      <stop
         style="stop-color:#2b1100;stop-opacity:1;"
         offset="0"
         id="stop4805" />
      <stop
         id="stop4807"
         offset="0.29999998"
         style="stop-color:#2b1100;stop-opacity:1;" />
      <stop
         style="stop-color:#803300;stop-opacity:1;"
         offset="0.80000001"
         id="stop4809" />
      <stop
         id="stop4811"
         offset="1"
         style="stop-color:#ffe680;stop-opacity:1;" />
      <stop
         style="stop-color:#ffe680;stop-opacity:1;"
         offset="1"
         id="stop4813" />
    </linearGradient>
    <linearGradient
       id="linearGradient4783">
      <stop
         id="stop4785"
         offset="0"
         style="stop-color:#2b1100;stop-opacity:1;" />
      <stop
         style="stop-color:#2b1100;stop-opacity:1;"
         offset="0.03125"
         id="stop4787" />
      <stop
         id="stop4791"
         offset="0.44999999"
         style="stop-color:#803300;stop-opacity:1;" />
      <stop
         style="stop-color:#ffe680;stop-opacity:1;"
         offset="0.78750002"
         id="stop4797" />
      <stop
         id="stop4799"
         offset="1"
         style="stop-color:#ffe680;stop-opacity:1;" />
    </linearGradient>
    <linearGradient
       id="linearGradient4699">
      <stop
         style="stop-color:#1a1a1a;stop-opacity:1;"
         offset="0"
         id="stop4701" />
      <stop
         id="stop4707"
         offset="0.40000001"
         style="stop-color:#1a1a1a;stop-opacity:1;" />
      <stop
         style="stop-color:#1a1a1a;stop-opacity:0;"
         offset="1"
         id="stop4709" />
      <stop
         style="stop-color:#1a1a1a;stop-opacity:0;"
         offset="1"
         id="stop4703" />
    </linearGradient>
    <linearGradient
       id="linearGradient4654">
      <stop
         style="stop-color:#1a1a1a;stop-opacity:1;"
         offset="0"
         id="stop4656" />
      <stop
         id="stop4662"
         offset="0.32596049"
         style="stop-color:#1a1a1a;stop-opacity:1;" />
      <stop
         style="stop-color:#1a1a1a;stop-opacity:0;"
         offset="1"
         id="stop4658" />
    </linearGradient>
    <linearGradient
       id="linearGradient4398">
      <stop
         style="stop-color:#803300;stop-opacity:1;"
         offset="0"
         id="stop4400" />
      <stop
         style="stop-color:#2d2400;stop-opacity:1;"
         offset="1"
         id="stop4402" />
    </linearGradient>
    <inkscape:path-effect
       effect="skeletal"
       id="path-effect4078"
       is_visible="true"
       pattern="M 0,5 10,10 10,0 z"
       copytype="single_stretched"
       prop_scale="1"
       scale_y_rel="false"
       spacing="0"
       normal_offset="0"
       tang_offset="0"
       prop_units="false"
       vertical_pattern="false"
       fuse_tolerance="0" />
    <linearGradient
       id="linearGradient4048">
      <stop
         style="stop-color:#2b1100;stop-opacity:1;"
         offset="0"
         id="stop4050" />
      <stop
         id="stop4066"
         offset="0.03125"
         style="stop-color:#2b1100;stop-opacity:1;" />
      <stop
         id="stop4062"
         offset="0.375"
         style="stop-color:#552200;stop-opacity:1;" />
      <stop
         style="stop-color:#803300;stop-opacity:1;"
         offset="0.44999999"
         id="stop4070" />
      <stop
         id="stop4058"
         offset="0.72500002"
         style="stop-color:#aa4400;stop-opacity:1;" />
      <stop
         style="stop-color:#aa4400;stop-opacity:1;"
         offset="0.75"
         id="stop4072" />
      <stop
         id="stop4074"
         offset="0.78750002"
         style="stop-color:#ffe680;stop-opacity:1;" />
      <stop
         style="stop-color:#ffe680;stop-opacity:1;"
         offset="1"
         id="stop4052" />
    </linearGradient>
    <inkscape:path-effect
       effect="skeletal"
       id="path-effect3130"
       is_visible="true"
       pattern="M 0,0 0,10 10,5 z"
       copytype="single_stretched"
       prop_scale="1"
       scale_y_rel="false"
       spacing="0"
       normal_offset="0"
       tang_offset="0"
       prop_units="false"
       vertical_pattern="false"
       fuse_tolerance="0" />
    <inkscape:path-effect
       effect="skeletal"
       id="path-effect3126"
       is_visible="true"
       pattern="M 0,5 10,10 10,0 z"
       copytype="single_stretched"
       prop_scale="1"
       scale_y_rel="false"
       spacing="0"
       normal_offset="0"
       tang_offset="0"
       prop_units="false"
       vertical_pattern="false"
       fuse_tolerance="0" />
    <filter
       inkscape:collect="always"
       id="filter4044"
       x="-0.29208943"
       width="1.5841789"
       y="-0.61466741"
       height="2.2293348">
      <feGaussianBlur
         inkscape:collect="always"
         stdDeviation="6.311195"
         id="feGaussianBlur4046" />
    </filter>
    <filter
       inkscape:collect="always"
       id="filter4362">
      <feGaussianBlur
         inkscape:collect="always"
         stdDeviation="0.195"
         id="feGaussianBlur4364" />
    </filter>
    <filter
       inkscape:collect="always"
       id="filter4366">
      <feGaussianBlur
         inkscape:collect="always"
         stdDeviation="0.195"
         id="feGaussianBlur4368" />
    </filter>
    <filter
       inkscape:collect="always"
       id="filter4370">
      <feGaussianBlur
         inkscape:collect="always"
         stdDeviation="0.195"
         id="feGaussianBlur4372" />
    </filter>
    <filter
       inkscape:collect="always"
       id="filter4410">
      <feGaussianBlur
         inkscape:collect="always"
         stdDeviation="0.50523883"
         id="feGaussianBlur4412" />
    </filter>
    <filter
       inkscape:collect="always"
       id="filter4418">
      <feGaussianBlur
         inkscape:collect="always"
         stdDeviation="0.2"
         id="feGaussianBlur4420" />
    </filter>
    <filter
       color-interpolation-filters="sRGB"
       inkscape:collect="always"
       id="filter4410-0">
      <feGaussianBlur
         inkscape:collect="always"
         stdDeviation="0.50523883"
         id="feGaussianBlur4412-5" />
    </filter>
    <filter
       inkscape:collect="always"
       id="filter4479">
      <feGaussianBlur
         inkscape:collect="always"
         stdDeviation="3.2855217"
         id="feGaussianBlur4481" />
    </filter>
    <filter
       inkscape:collect="always"
       id="filter4503">
      <feGaussianBlur
         inkscape:collect="always"
         stdDeviation="0.7"
         id="feGaussianBlur4505" />
    </filter>
    <filter
       inkscape:collect="always"
       id="filter4507">
      <feGaussianBlur
         inkscape:collect="always"
         stdDeviation="0.67344086"
         id="feGaussianBlur4509" />
    </filter>
    <linearGradient
       id="linearGradient4048-6">
      <stop
         style="stop-color:#2b1100;stop-opacity:1;"
         offset="0"
         id="stop4050-7" />
      <stop
         id="stop4066-8"
         offset="0.03125"
         style="stop-color:#2b1100;stop-opacity:1;" />
      <stop
         id="stop4062-0"
         offset="0.375"
         style="stop-color:#552200;stop-opacity:1;" />
      <stop
         style="stop-color:#803300;stop-opacity:1;"
         offset="0.44999999"
         id="stop4070-6" />
      <stop
         id="stop4058-6"
         offset="0.72500002"
         style="stop-color:#aa4400;stop-opacity:1;" />
      <stop
         style="stop-color:#aa4400;stop-opacity:1;"
         offset="0.75"
         id="stop4072-2" />
      <stop
         id="stop4074-5"
         offset="0.78750002"
         style="stop-color:#ffe680;stop-opacity:1;" />
      <stop
         style="stop-color:#ffe680;stop-opacity:1;"
         offset="1"
         id="stop4052-0" />
    </linearGradient>
    <linearGradient
       gradientTransform="translate(-212.50006,-59.500062)"
       y2="110"
       x2="220"
       y1="110"
       x1="300"
       gradientUnits="userSpaceOnUse"
       id="linearGradient4581"
       xlink:href="#linearGradient4048-6"
       inkscape:collect="always" />
    <radialGradient
       inkscape:collect="always"
       xlink:href="#linearGradient4398"
       id="radialGradient4646"
       gradientUnits="userSpaceOnUse"
       gradientTransform="matrix(-6.0501615e-7,-0.91710694,0.917108,1.013416e-7,-102.21768,209.46595)"
       cx="48.081192"
       cy="166.37962"
       fx="48.081192"
       fy="166.37962"
       r="10.5" />
    <linearGradient
       inkscape:collect="always"
       xlink:href="#linearGradient4783"
       id="linearGradient4648"
       gradientUnits="userSpaceOnUse"
       x1="300"
       y1="110"
       x2="220"
       y2="110" />
    <linearGradient
       inkscape:collect="always"
       xlink:href="#linearGradient4048"
       id="linearGradient4650"
       gradientUnits="userSpaceOnUse"
       x1="300"
       y1="110"
       x2="220"
       y2="110" />
    <radialGradient
       inkscape:collect="always"
       xlink:href="#linearGradient4654"
       id="radialGradient4660"
       cx="243.21451"
       cy="192.63968"
       fx="243.21451"
       fy="192.63968"
       r="41.712511"
       gradientTransform="matrix(-0.32772869,0.45674859,-0.94140183,-0.31936456,527.36222,144.60056)"
       gradientUnits="userSpaceOnUse" />
    <radialGradient
       inkscape:collect="always"
       xlink:href="#linearGradient4699"
       id="radialGradient4705"
       cx="69.893074"
       cy="280"
       fx="69.893074"
       fy="280"
       r="31.212573"
       gradientUnits="userSpaceOnUse"
       gradientTransform="matrix(-2.2502161e-7,0.96115116,-0.57669049,-1.4604344e-7,241.47336,204.82222)" />
    <radialGradient
       inkscape:collect="always"
       xlink:href="#linearGradient4048"
       id="radialGradient4723"
       cx="182.97482"
       cy="259.77139"
       fx="182.97482"
       fy="259.77139"
       r="101.03005"
       gradientTransform="matrix(1.3141221,0.00190142,-1.7015307e-4,0.1175539,-57.43224,168.77053)"
       gradientUnits="userSpaceOnUse" />
    <radialGradient
       inkscape:collect="always"
       xlink:href="#linearGradient4048"
       id="radialGradient4779"
       gradientUnits="userSpaceOnUse"
       gradientTransform="matrix(1.3141221,0.00190142,-1.7015307e-4,0.1175539,-57.43224,168.77053)"
       cx="182.97482"
       cy="259.77139"
       fx="182.97482"
       fy="259.77139"
       r="101.03005" />
    <linearGradient
       inkscape:collect="always"
       xlink:href="#linearGradient4803"
       id="linearGradient4801"
       gradientUnits="userSpaceOnUse"
       x1="349.07617"
       y1="100.32134"
       x2="183.1189"
       y2="100.08121" />
    <filter
       inkscape:collect="always"
       id="filter4829">
      <feGaussianBlur
         inkscape:collect="always"
         stdDeviation="0.5640306"
         id="feGaussianBlur4831" />
    </filter>
    <filter
       inkscape:collect="always"
       id="filter4833">
      <feGaussianBlur
         inkscape:collect="always"
         stdDeviation="0.76045127"
         id="feGaussianBlur4835" />
    </filter>
    <filter
       inkscape:collect="always"
       id="filter4837">
      <feGaussianBlur
         inkscape:collect="always"
         stdDeviation="0.83119093"
         id="feGaussianBlur4839" />
    </filter>
    <filter
       inkscape:collect="always"
       id="filter4841"
       x="-0.010670728"
       width="1.0213415"
       y="-0.10132252"
       height="1.202645">
      <feGaussianBlur
         inkscape:collect="always"
         stdDeviation="0.88539037"
         id="feGaussianBlur4843" />
    </filter>
    <filter
       inkscape:collect="always"
       id="filter4845">
      <feGaussianBlur
         inkscape:collect="always"
         stdDeviation="0.76045127"
         id="feGaussianBlur4847" />
    </filter>
    <filter
       inkscape:collect="always"
       id="filter4849">
      <feGaussianBlur
         inkscape:collect="always"
         stdDeviation="0.91644127"
         id="feGaussianBlur4851" />
    </filter>
    <filter
       inkscape:collect="always"
       id="filter4853">
      <feGaussianBlur
         inkscape:collect="always"
         stdDeviation="0.91644127"
         id="feGaussianBlur4855" />
    </filter>
    <filter
       inkscape:collect="always"
       id="filter4857">
      <feGaussianBlur
         inkscape:collect="always"
         stdDeviation="0.83119093"
         id="feGaussianBlur4859" />
    </filter>
    <filter
       inkscape:collect="always"
       id="filter4861">
      <feGaussianBlur
         inkscape:collect="always"
         stdDeviation="0.76045127"
         id="feGaussianBlur4863" />
    </filter>
    <linearGradient
       inkscape:collect="always"
       xlink:href="#linearGradient4803"
       id="linearGradient4939"
       gradientUnits="userSpaceOnUse"
       x1="349.07617"
       y1="100.32134"
       x2="183.1189"
       y2="100.08121" />
    <radialGradient
       inkscape:collect="always"
       xlink:href="#linearGradient4048"
       id="radialGradient4941"
       gradientUnits="userSpaceOnUse"
       gradientTransform="matrix(1.3141221,0.00190142,-1.7015307e-4,0.1175539,-57.43224,168.77053)"
       cx="182.97482"
       cy="259.77139"
       fx="182.97482"
       fy="259.77139"
       r="101.03005" />
    <radialGradient
       inkscape:collect="always"
       xlink:href="#linearGradient4048"
       id="radialGradient4943"
       gradientUnits="userSpaceOnUse"
       gradientTransform="matrix(1.3141221,0.00190142,-1.7015307e-4,0.1175539,-57.43224,168.77053)"
       cx="182.97482"
       cy="259.77139"
       fx="182.97482"
       fy="259.77139"
       r="101.03005" />
    <radialGradient
       inkscape:collect="always"
       xlink:href="#linearGradient4398"
       id="radialGradient4945"
       gradientUnits="userSpaceOnUse"
       gradientTransform="matrix(-6.0501615e-7,-0.91710694,0.917108,1.013416e-7,-102.21768,209.46595)"
       cx="48.081192"
       cy="166.37962"
       fx="48.081192"
       fy="166.37962"
       r="10.5" />
    <linearGradient
       inkscape:collect="always"
       xlink:href="#linearGradient4048"
       id="linearGradient4947"
       gradientUnits="userSpaceOnUse"
       x1="300"
       y1="110"
       x2="220"
       y2="110" />
    <radialGradient
       inkscape:collect="always"
       xlink:href="#linearGradient4699"
       id="radialGradient4949"
       gradientUnits="userSpaceOnUse"
       gradientTransform="matrix(-2.2502161e-7,0.96115116,-0.57669049,-1.4604344e-7,241.47336,204.82222)"
       cx="69.893074"
       cy="280"
       fx="69.893074"
       fy="280"
       r="31.212573" />
  </defs>
  <sodipodi:namedview
     id="base"
     pagecolor="#ffffff"
     bordercolor="#666666"
     borderopacity="1.0"
     inkscape:pageopacity="0.0"
     inkscape:pageshadow="2"
     inkscape:zoom="0.98994949"
     inkscape:cx="269.17334"
     inkscape:cy="214.5362"
     inkscape:document-units="px"
     inkscape:current-layer="layer2"
     showgrid="true"
     showguides="false"
     inkscape:window-width="1278"
     inkscape:window-height="722"
     inkscape:window-x="0"
     inkscape:window-y="25"
     inkscape:window-maximized="1">
    <inkscape:grid
       type="xygrid"
       id="grid2985"
       empspacing="5"
       visible="true"
       enabled="true"
       snapvisiblegridlinesonly="true" />
    <sodipodi:guide
       position="300,290"
       orientation="-100,-10"
       id="guide3010" />
    <sodipodi:guide
       position="210,280"
       orientation="-110,-10"
       id="guide3012" />
  </sodipodi:namedview>
  <metadata
     id="metadata7">
    <rdf:RDF>
      <cc:Work
         rdf:about="">
        <dc:format>image/svg+xml</dc:format>
        <dc:type
           rdf:resource="http://purl.org/dc/dcmitype/StillImage" />
        <dc:title></dc:title>
      </cc:Work>
    </rdf:RDF>
  </metadata>
  <g
     inkscape:groupmode="layer"
     id="layer2"
     inkscape:label="Draw"
     style="opacity:1">
    <g
       id="g4374"
       style="stroke:#803300;filter:url(#filter4507)"
       transform="matrix(0.98693551,-0.16111578,0.16111578,0.98693551,-24.330026,35.426617)" />
    <g
       id="g4902"
       transform="translate(-19.76963,37.714946)">
      <g
         transform="matrix(0.99999895,-0.0014469,0.0014469,0.99999895,11.975186,7.0681992)"
         id="g4552">
        <path
           id="path4519"
           d="m 355,182.5 c 0,9.66498 -43.65224,17.5 -97.5,17.5 -53.84776,0 -97.5,-7.83502 -97.5,-17.5 0,-9.66498 43.65224,-17.5 97.5,-17.5 53.84776,0 97.5,7.83502 97.5,17.5 z"
           style="color:#000000;fill:#803300;stroke:#803300;stroke-width:1.47399998;stroke-linecap:butt;stroke-linejoin:miter;stroke-miterlimit:4;stroke-opacity:1;stroke-dashoffset:0;marker:none;visibility:visible;display:inline;overflow:visible;filter:url(#filter4861);enable-background:accumulate"
           transform="matrix(1.2051282,0,0,1.2051282,-52.820512,-7.4359)"
           inkscape:connector-curvature="0" />
        <path
           id="path4515"
           d="m 355,182.5 c 0,9.66498 -43.65224,17.5 -97.5,17.5 -53.84776,0 -97.5,-7.83502 -97.5,-17.5 0,-9.66498 43.65224,-17.5 97.5,-17.5 53.84776,0 97.5,7.83502 97.5,17.5 z"
           style="color:#000000;fill:#803300;stroke:#803300;stroke-width:1.47399998;stroke-linecap:butt;stroke-linejoin:miter;stroke-miterlimit:4;stroke-opacity:1;stroke-dashoffset:0;marker:none;visibility:visible;display:inline;overflow:visible;filter:url(#filter4857);enable-background:accumulate"
           transform="matrix(1.1025641,0,0,1.1025641,-26.410256,-6.71795)"
           inkscape:connector-curvature="0" />
        <path
           id="path4513"
           d="m 355,182.5 c 0,9.66498 -43.65224,17.5 -97.5,17.5 -53.84776,0 -97.5,-7.83502 -97.5,-17.5 0,-9.66498 43.65224,-17.5 97.5,-17.5 53.84776,0 97.5,7.83502 97.5,17.5 z"
           style="opacity:0.7;color:#000000;fill:#ff7f2a;stroke:#803300;stroke-width:1.47399998;stroke-linecap:butt;stroke-linejoin:miter;stroke-miterlimit:4;stroke-opacity:1;stroke-dashoffset:0;marker:none;visibility:visible;display:inline;overflow:visible;filter:url(#filter4853);enable-background:accumulate"
           transform="translate(0,6)"
           inkscape:connector-curvature="0" />
        <path
           id="path4511"
           d="m 355,182.5 c 0,9.66498 -43.65224,17.5 -97.5,17.5 -53.84776,0 -97.5,-7.83502 -97.5,-17.5 0,-9.66498 43.65224,-17.5 97.5,-17.5 53.84776,0 97.5,7.83502 97.5,17.5 z"
           style="color:#000000;fill:#803300;stroke:#803300;stroke-width:1.47399998;stroke-linecap:butt;stroke-linejoin:miter;stroke-miterlimit:4;stroke-opacity:1;stroke-dashoffset:0;marker:none;visibility:visible;display:inline;overflow:visible;filter:url(#filter4849);enable-background:accumulate"
           transform="translate(0,4)"
           inkscape:connector-curvature="0" />
        <path
           id="path4539"
           transform="matrix(1.2051282,0,0,1.2051282,-52.820512,-7.4359)"
           style="color:#000000;fill:url(#linearGradient4939);fill-opacity:1;fill-rule:nonzero;stroke:#803300;stroke-width:0.82968354;stroke-linecap:butt;stroke-linejoin:miter;stroke-miterlimit:4;stroke-opacity:1;stroke-dasharray:none;stroke-dashoffset:0;marker:none;visibility:visible;display:inline;overflow:visible;filter:url(#filter4845);enable-background:accumulate"
           d="M 355,183.53723 C 355,192.16498 311.34776,200 257.5,200 203.65224,200 160,192.16498 160,183.53723 l 0,50.61703 c 0,9.45753 43.65224,17.29255 97.5,17.29255 53.84776,0 97.5,-7.83502 97.5,-17.29255 z"
           inkscape:connector-curvature="0"
           sodipodi:nodetypes="csccscc" />
        <path
           style="font-size:medium;font-style:normal;font-variant:normal;font-weight:normal;font-stretch:normal;text-indent:0;text-align:start;text-decoration:none;line-height:normal;letter-spacing:normal;word-spacing:normal;text-transform:none;direction:ltr;block-progression:tb;writing-mode:lr-tb;text-anchor:start;baseline-shift:baseline;color:#000000;fill:url(#radialGradient4941);fill-opacity:1;stroke:none;stroke-width:4.14893627;marker:none;visibility:visible;display:inline;overflow:visible;filter:url(#filter4841);enable-background:accumulate;font-family:Sans;-inkscape-font-specification:Sans"
           d="m 159.75,181.4375 a 2.0746756,2.0746756 0 0 0 -1.8125,2.09375 c 0,1.95312 1.18787,3.5617 2.75,4.8125 1.56213,1.2508 3.63566,2.32397 6.21875,3.34375 5.16617,2.03956 12.40657,3.84194 21.3125,5.375 17.81187,3.06611 42.25676,5 69.28125,5 27.02449,0 51.46938,-1.93389 69.28125,-5 8.90593,-1.53306 16.14633,-3.33544 21.3125,-5.375 2.58309,-1.01978 4.65662,-2.09295 6.21875,-3.34375 1.56213,-1.2508 2.75,-2.85938 2.75,-4.8125 a 2.0746756,2.0746756 0 1 0 -4.125,0 c 0,0.20382 -0.18331,0.73342 -1.21875,1.5625 -1.03544,0.82908 -2.80557,1.79072 -5.15625,2.71875 -4.70137,1.85606 -11.73065,3.65208 -20.46875,5.15625 -17.47619,3.00833 -41.77048,4.96875 -68.59375,4.96875 -26.82327,0 -51.11756,-1.96042 -68.59375,-4.96875 -8.7381,-1.50417 -15.76738,-3.30019 -20.46875,-5.15625 -2.35068,-0.92803 -4.12081,-1.88967 -5.15625,-2.71875 -1.03544,-0.82908 -1.21875,-1.35868 -1.21875,-1.5625 A 2.0746756,2.0746756 0 0 0 159.75,181.4375 z"
           id="path4777"
           inkscape:connector-curvature="0"
           transform="matrix(1.0350703,0,0,1.0350703,-8.9997591,3.143325)" />
        <path
           id="path4547"
           transform="matrix(1.1025641,0,0,1.1025641,-26.410256,-6.71795)"
           style="color:#000000;fill:#aa4400;stroke:#803300;stroke-width:1.47399998;stroke-linecap:butt;stroke-linejoin:miter;stroke-miterlimit:4;stroke-opacity:1;stroke-dashoffset:0;marker:none;visibility:visible;display:inline;overflow:visible;filter:url(#filter4837);enable-background:accumulate"
           d="m 355,195.8779 c 0,8.98475 -43.65224,16.81977 -97.5,16.81977 -53.84776,0 -97.5,-7.83502 -97.5,-16.81977 l 0,-13.15115 C 160,192.16498 203.65224,200 257.5,200 c 53.84776,0 97.5,-7.83502 97.5,-17.27325 z"
           inkscape:connector-curvature="0"
           sodipodi:nodetypes="csccscc" />
        <path
           transform="matrix(1.2051282,0,0,1.2051282,-52.817618,-9.4358981)"
           inkscape:connector-curvature="0"
           id="path4711"
           d="m 159.75,181.4375 a 2.0746756,2.0746756 0 0 0 -1.8125,2.09375 c 0,1.95312 1.18787,3.5617 2.75,4.8125 1.56213,1.2508 3.63566,2.32397 6.21875,3.34375 5.16617,2.03956 12.40657,3.84194 21.3125,5.375 17.81187,3.06611 42.25676,5 69.28125,5 27.02449,0 51.46938,-1.93389 69.28125,-5 8.90593,-1.53306 16.14633,-3.33544 21.3125,-5.375 2.58309,-1.01978 4.65662,-2.09295 6.21875,-3.34375 1.56213,-1.2508 2.75,-2.85938 2.75,-4.8125 a 2.0746756,2.0746756 0 1 0 -4.125,0 c 0,0.20382 -0.18331,0.73342 -1.21875,1.5625 -1.03544,0.82908 -2.80557,1.79072 -5.15625,2.71875 -4.70137,1.85606 -11.73065,3.65208 -20.46875,5.15625 -17.47619,3.00833 -41.77048,4.96875 -68.59375,4.96875 -26.82327,0 -51.11756,-1.96042 -68.59375,-4.96875 -8.7381,-1.50417 -15.76738,-3.30019 -20.46875,-5.15625 -2.35068,-0.92803 -4.12081,-1.88967 -5.15625,-2.71875 -1.03544,-0.82908 -1.21875,-1.35868 -1.21875,-1.5625 A 2.0746756,2.0746756 0 0 0 159.75,181.4375 z"
           style="font-size:medium;font-style:normal;font-variant:normal;font-weight:normal;font-stretch:normal;text-indent:0;text-align:start;text-decoration:none;line-height:normal;letter-spacing:normal;word-spacing:normal;text-transform:none;direction:ltr;block-progression:tb;writing-mode:lr-tb;text-anchor:start;baseline-shift:baseline;color:#000000;fill:url(#radialGradient4943);fill-opacity:1;stroke:none;stroke-width:4.14893627;marker:none;visibility:visible;display:inline;overflow:visible;filter:url(#filter4833);enable-background:accumulate;font-family:Sans;-inkscape-font-specification:Sans" />
      </g>
      <path
         id="path3128"
         d="M 51.856953,165.35762 48.143047,174.64238 100,190 z"
         style="fill:#000000;fill-rule:evenodd;stroke:none;filter:url(#filter4044)"
         transform="matrix(0.98693551,-0.16111578,0.16111578,0.98693551,-24.330026,35.426617)"
         inkscape:connector-curvature="0" />
      <path
         transform="matrix(0.98693551,-0.16111578,0.16111578,0.98693551,-24.330026,35.426617)"
         sodipodi:nodetypes="cccccsc"
         inkscape:connector-curvature="0"
         d="m 47,151 113,-29 5,15 -115,32 m 0,0 c -6,2 -10,-2 -11,-7 -0.974808,-4.87404 2,-9 8,-11"
         style="color:#000000;fill:#803300;fill-opacity:1;fill-rule:nonzero;stroke:#552200;stroke-width:0.80000001;stroke-linecap:butt;stroke-linejoin:miter;stroke-miterlimit:4;stroke-opacity:1;stroke-dasharray:none;stroke-dashoffset:0;marker:none;visibility:visible;display:inline;overflow:visible;filter:url(#filter4410-0);enable-background:accumulate"
         id="path3116" />
      <path
         transform="matrix(0.93149534,-0.34146731,0.17012439,0.2702254,-18.585457,154.38606)"
         id="path4445"
         style="color:#000000;fill:#deaa87;fill-opacity:1;fill-rule:nonzero;stroke:none;stroke-width:1.09317577;marker:none;visibility:visible;display:inline;overflow:visible;filter:url(#filter4479);enable-background:accumulate"
         d="m 47,151 113,-29 5,15 -115,32 m 0,0 c -6,2 -10,-2 -11,-7 -0.974808,-4.87404 2,-9 8,-11"
         inkscape:connector-curvature="0"
         sodipodi:nodetypes="cccccsc" />
      <path
         id="path3102"
         d="m 60,165 c 0,5.52285 -4.477153,10 -10,10 -5.522847,0 -10,-4.47715 -10,-10 0,-5.52285 4.477153,-10 10,-10 5.522847,0 10,4.47715 10,10 z"
         style="fill:url(#radialGradient4945);fill-opacity:1;stroke:#2b1100;stroke-width:0.74074072;stroke-miterlimit:4;stroke-dasharray:none;filter:url(#filter4418)"
         transform="matrix(1.3323629,-0.2175063,0.2175063,1.3323629,64.777744,-76.644199)"
         inkscape:connector-curvature="0" />
      <path
         inkscape:connector-curvature="0"
         transform="matrix(1.2336694,-0.20139472,0.20139472,1.2336694,72.370832,-61.165342)"
         style="fill:none;stroke:#deaa87;stroke-width:1.17920005;stroke-miterlimit:4;stroke-dasharray:none;filter:url(#filter4503)"
         d="m 60,165 c 0,5.52285 -4.477153,10 -10,10 -5.522847,0 -10,-4.47715 -10,-10 0,-5.52285 4.477153,-10 10,-10 5.522847,0 10,4.47715 10,10 z"
         id="path4485" />
      <path
         transform="matrix(0.98693551,-0.16111578,0.16111578,0.98693551,-24.330026,35.426617)"
         sodipodi:nodetypes="scccssscccs"
         inkscape:connector-curvature="0"
         id="path3104"
         d="m 213,99 c -2.89394,0 -5.61468,0.724607 -8,2 l -0.0937,0.0625 L 173.8125,118 c -0.10374,-0.004 -0.20785,0 -0.3125,0 -4.69442,0 -8.5,3.80558 -8.5,8.5 0,4.69442 3.80558,8.5 8.5,8.5 1.47689,0 2.88363,-0.36875 4.09375,-1.03125 L 213,133 c 3,0 18,-1 17,-17 0,-9.38884 -7.61116,-17 -17,-17 z"
         style="fill:#803300;stroke:#552200;stroke-width:0.80000001;stroke-miterlimit:4;stroke-dasharray:none;filter:url(#filter4410)" />
      <path
         sodipodi:nodetypes="cccccsc"
         inkscape:connector-curvature="0"
         d="m 47,151 111.40823,-37.17212 13.87483,25.15377 -123.511257,27.46603 m 0,0 c -6,2 -5.00057,-0.32465 -6.00057,-5.32465 -0.974808,-4.87404 -1.429597,-5.14451 4.570403,-7.14451"
         style="color:#000000;fill:#deaa87;fill-opacity:1;fill-rule:nonzero;stroke:none;stroke-width:1.09317577;marker:none;visibility:visible;display:inline;overflow:visible;filter:url(#filter4479);enable-background:accumulate"
         id="path4483"
         transform="matrix(0.36218056,-0.08452844,0.02306493,0.40544573,140.27243,69.350144)" />
      <path
         id="path3054"
         d="m 295,45 c 0,13.807119 -17.90861,25 -40,25 -22.09139,0 -40,-11.192881 -40,-25 0,-13.807119 17.90861,-25 40,-25 22.09139,0 40,11.192881 40,25 z"
         style="fill:#aa4400;stroke:#803300;filter:url(#filter4507)"
         transform="matrix(1.0239456,-0.16715762,0.12366069,0.75749953,-29.836212,39.325984)"
         inkscape:connector-curvature="0" />
      <path
         id="path3026"
         d="m 295,45 c 0,13.807119 -17.90861,25 -40,25 -22.09139,0 -40,-11.192881 -40,-25 0,-13.807119 17.90861,-25 40,-25 22.09139,0 40,11.192881 40,25 z"
         style="fill:#aa4400;stroke:#803300;filter:url(#filter4507)"
         transform="matrix(1.1473125,-0.18729709,0.13855957,0.84876454,-60.998536,46.276237)"
         inkscape:connector-curvature="0" />
      <path
         id="path3028"
         d="m 295,45 c 0,13.807119 -17.90861,25 -40,25 -22.09139,0 -40,-11.192881 -40,-25 0,-13.807119 17.90861,-25 40,-25 22.09139,0 40,11.192881 40,25 z"
         style="fill:#552200;stroke:#803300;filter:url(#filter4507)"
         transform="matrix(1.1473125,-0.18729709,0.13855957,0.84876454,-60.031841,52.19785)"
         inkscape:connector-curvature="0" />
      <path
         id="path3050"
         d="m 295,45 c 0,13.807119 -17.90861,25 -40,25 -22.09139,0 -40,-11.192881 -40,-25 0,-13.807119 17.90861,-25 40,-25 22.09139,0 40,11.192881 40,25 z"
         style="fill:#aa4400;stroke:#803300;filter:url(#filter4507)"
         transform="matrix(0.90057865,-0.14701815,0.09386293,0.57496952,6.2058128,56.060249)"
         inkscape:connector-curvature="0" />
      <path
         id="path3052"
         d="m 295,45 c 0,13.807119 -17.90861,25 -40,25 -22.09139,0 -40,-11.192881 -40,-25 0,-13.807119 17.90861,-25 40,-25 22.09139,0 40,11.192881 40,25 z"
         style="fill:#d45500;stroke:#803300;filter:url(#filter4507)"
         transform="matrix(0.90057865,-0.14701815,0.09386293,0.57496952,7.1725075,61.981862)"
         inkscape:connector-curvature="0" />
      <path
         style="fill:#aa4400;stroke:#803300;stroke-width:0.99987501;filter:url(#filter4507)"
         d="m 258.5,52 c -25.68124,0 -46.5,9.625878 -46.5,21.5 0,1.367629 0.34702,2.703293 0.875,4 0.045,-0.110588 0.0138,-0.233767 0.0625,-0.34375 0.61942,-1.399598 1.54224,-2.745138 2.71875,-4.03125 1.17651,-1.286112 2.60997,-2.512443 4.28125,-3.65625 1.67128,-1.143807 3.58379,-2.183566 5.6875,-3.15625 2.10371,-0.972684 4.40118,-1.883509 6.875,-2.65625 2.47382,-0.772741 5.12466,-1.42477 7.90625,-1.96875 2.78159,-0.54398 5.69171,-0.963601 8.71875,-1.25 C 252.15204,60.151101 255.28984,60 258.5,60 c 3.21016,0 6.34796,0.151101 9.375,0.4375 3.02704,0.286399 5.93716,0.70602 8.71875,1.25 2.78159,0.54398 5.43243,1.196009 7.90625,1.96875 2.47382,0.772741 4.77129,1.683566 6.875,2.65625 2.10371,0.972684 4.01622,2.012443 5.6875,3.15625 1.67128,1.143807 3.10474,2.370138 4.28125,3.65625 1.17651,1.286112 2.09933,2.631652 2.71875,4.03125 0.0487,0.109983 0.0175,0.233162 0.0625,0.34375 C 304.65298,76.203293 305,74.867629 305,73.5 305,61.625878 284.18124,52 258.5,52 z"
         id="path3030"
         inkscape:connector-curvature="0"
         transform="matrix(0.98693551,-0.16111578,0.16111578,0.98693551,-24.330026,35.426617)" />
      <path
         style="fill:url(#linearGradient4947);fill-opacity:1;stroke:#803300;stroke-width:0.99987501;filter:url(#filter4507)"
         d="m 303.99999,80 c 0,5.937061 10e-6,35 10e-6,45 0,5 -31.15938,10 -44,10 -12.84062,0 -47,3 -47,-7 0,-7.19976 0,-41.062939 0,-47 0,-11.874122 20.31876,-21 46,-21 25.68124,0 44.99999,8.125878 44.99999,20 z"
         id="path3076"
         inkscape:connector-curvature="0"
         sodipodi:nodetypes="sssssss"
         transform="matrix(0.98693551,-0.16111578,0.16111578,0.98693551,-24.330026,35.426617)" />
      <path
         id="path3034"
         d="m 295,45 c 0,13.807119 -17.90861,25 -40,25 -22.09139,0 -40,-11.192881 -40,-25 0,-13.807119 17.90861,-25 40,-25 22.09139,0 40,11.192881 40,25 z"
         style="fill:#aa4400;stroke:#2b1100;filter:url(#filter4507)"
         transform="matrix(1.1473125,-0.18729709,0.13855957,0.84876454,-46.498116,135.10043)"
         inkscape:connector-curvature="0" />
      <path
         id="path3036"
         d="m 295,45 c 0,13.807119 -17.90861,25 -40,25 -22.09139,0 -40,-11.192881 -40,-25 0,-13.807119 17.90861,-25 40,-25 22.09139,0 40,11.192881 40,25 z"
         style="fill:#552200;stroke:#803300;filter:url(#filter4507)"
         transform="matrix(1.1473125,-0.18729709,0.13855957,0.84876454,-45.531421,141.02205)"
         inkscape:connector-curvature="0" />
      <path
         id="path3038"
         d="m 295,45 c 0,13.807119 -17.90861,25 -40,25 -22.09139,0 -40,-11.192881 -40,-25 0,-13.807119 17.90861,-25 40,-25 22.09139,0 40,11.192881 40,25 z"
         style="fill:#803300;stroke:#803300;filter:url(#filter4507)"
         transform="matrix(0.90057865,-0.14701815,0.09386293,0.57496952,21.028465,146.85832)"
         inkscape:connector-curvature="0" />
      <path
         id="path3040"
         d="m 295,45 c 0,13.807119 -17.90861,25 -40,25 -22.09139,0 -40,-11.192881 -40,-25 0,-13.807119 17.90861,-25 40,-25 22.09139,0 40,11.192881 40,25 z"
         style="fill:#aa4400;stroke:#803300;filter:url(#filter4507)"
         transform="matrix(0.90057865,-0.14701815,0.09386293,0.57496952,21.672928,150.80606)"
         inkscape:connector-curvature="0" />
      <path
         id="path3042"
         d="m 295,45 c 0,13.807119 -17.90861,25 -40,25 -22.09139,0 -40,-11.192881 -40,-25 0,-13.807119 17.90861,-25 40,-25 22.09139,0 40,11.192881 40,25 z"
         style="fill:#d45500;stroke:#803300;filter:url(#filter4507)"
         transform="matrix(0.90057865,-0.14701815,0.09386293,0.57496952,21.995159,152.77993)"
         inkscape:connector-curvature="0" />
      <path
         id="path3046"
         d="m 295,45 c 0,13.807119 -17.90861,25 -40,25 -22.09139,0 -40,-11.192881 -40,-25 0,-13.807119 17.90861,-25 40,-25 22.09139,0 40,11.192881 40,25 z"
         style="fill:#aa4400;stroke:#803300;filter:url(#filter4507)"
         transform="matrix(1.1473125,-0.18729709,0.13855957,0.84876454,-41.342411,166.68237)"
         inkscape:connector-curvature="0" />
      <path
         id="path3071"
         d="m 295,45 c 0,13.807119 -17.90861,25 -40,25 -22.09139,0 -40,-11.192881 -40,-25 0,-13.807119 17.90861,-25 40,-25 22.09139,0 40,11.192881 40,25 z"
         style="fill:#803300;stroke:#803300;filter:url(#filter4507)"
         transform="matrix(1.1473125,-0.18729709,0.13855957,0.84876454,-40.375716,172.60398)"
         inkscape:connector-curvature="0" />
      <path
         id="path3048"
         d="m 295,45 c 0,13.807119 -17.90861,25 -40,25 -22.09139,0 -40,-11.192881 -40,-25 0,-13.807119 17.90861,-25 40,-25 22.09139,0 40,11.192881 40,25 z"
         style="fill:#552200;stroke:#803300;filter:url(#filter4507)"
         transform="matrix(1.0239456,-0.16715762,0.12366069,0.75749953,-7.6022343,175.52308)"
         inkscape:connector-curvature="0" />
      <path
         style="opacity:0.7;fill:#ffb380;stroke:#803300;stroke-width:2.20000005;stroke-linecap:round;stroke-linejoin:miter;stroke-miterlimit:4;stroke-opacity:1;stroke-dasharray:none;filter:url(#filter4370)"
         d="m 260,160 -30,20"
         id="path4080"
         inkscape:connector-curvature="0"
         transform="matrix(0.98693551,-0.16111578,0.16111578,0.98693551,-24.330026,35.426617)" />
      <path
         style="opacity:0.7;fill:#ffb380;stroke:#803300;stroke-width:2.20000005;stroke-linecap:round;stroke-linejoin:miter;stroke-miterlimit:4;stroke-opacity:1;stroke-dasharray:none;filter:url(#filter4366)"
         d="m 270,160 -30,20"
         id="path4082"
         inkscape:connector-curvature="0"
         transform="matrix(0.98693551,-0.16111578,0.16111578,0.98693551,-24.330026,35.426617)" />
      <path
         inkscape:connector-curvature="0"
         id="path4084"
         d="m 280,168 -30,20"
         style="opacity:0.7;fill:#ffb380;stroke:#803300;stroke-width:2.20000005;stroke-linecap:round;stroke-linejoin:miter;stroke-miterlimit:4;stroke-opacity:1;stroke-dasharray:none;filter:url(#filter4362)"
         transform="matrix(0.98693551,-0.16111578,0.16111578,0.98693551,-24.330026,35.426617)" />
      <path
         id="path4697"
         d="m 110,290 c 0,16.56854 -13.431458,30 -30,30 -16.568542,0 -30,-13.43146 -30,-30 0,-16.56854 13.431458,-30 30,-30 16.568542,0 30,13.43146 30,30 z"
         style="color:#000000;fill:url(#radialGradient4949);fill-opacity:1;fill-rule:nonzero;stroke:none;stroke-width:0.99987501;marker:none;visibility:visible;display:inline;overflow:visible;filter:url(#filter4829);enable-background:accumulate"
         transform="matrix(2.3842263,-0.2747101,0.12590879,1.0927703,36.748344,-77.926576)"
         inkscape:connector-curvature="0" />
    </g>
  </g>
  <g
     inkscape:label="Layer 1"
     inkscape:groupmode="layer"
     id="layer1"
     transform="translate(0,-652.36218)"
     style="display:inline" />
</svg>
